<?xml version="1.0" encoding="UTF-8"?>
<svg xmlns="http://www.w3.org/2000/svg" xmlns:xlink="http://www.w3.org/1999/xlink" viewBox="0 0 48 48" width="48px" height="48px">
<g id="surface139540432">
<path style=" stroke:none;fill-rule:nonzero;fill:rgb(100%,100%,100%);fill-opacity:1;" d="M 12.300781 4 C 12.101562 4 11.957031 4.191406 12.011719 4.382812 L 14.679688 14.015625 L 14.679688 18.324219 C 14.679688 18.601562 14.90625 18.824219 15.183594 18.824219 L 16.585938 18.824219 C 16.863281 18.824219 17.085938 18.601562 17.085938 18.324219 L 17.085938 14.015625 L 19.792969 4.382812 C 19.84375 4.191406 19.699219 4 19.503906 4 L 17.878906 4 C 17.644531 4 17.441406 4.160156 17.390625 4.386719 C 17.078125 5.84375 15.992188 10.917969 15.921875 11.402344 L 15.847656 11.402344 C 15.75 10.726562 14.714844 5.820312 14.410156 4.390625 C 14.359375 4.160156 14.160156 4 13.921875 4 Z M 22.796875 7.78125 C 21.980469 7.78125 21.324219 7.941406 20.824219 8.269531 C 20.320312 8.589844 19.953125 9.105469 19.71875 9.8125 C 19.484375 10.519531 19.367188 11.457031 19.367188 12.621094 L 19.367188 14.195312 C 19.367188 15.347656 19.46875 16.273438 19.675781 16.96875 C 19.882812 17.660156 20.230469 18.175781 20.71875 18.503906 C 21.207031 18.832031 21.882812 18.996094 22.742188 19 C 23.578125 19 24.246094 18.839844 24.730469 18.511719 C 25.21875 18.1875 25.574219 17.675781 25.792969 16.976562 C 26.011719 16.273438 26.117188 15.347656 26.117188 14.191406 L 26.117188 12.621094 C 26.117188 11.457031 26.007812 10.523438 25.78125 9.820312 C 25.558594 9.121094 25.207031 8.605469 24.722656 8.273438 C 24.242188 7.945312 23.597656 7.78125 22.796875 7.78125 Z M 27.882812 8 C 27.609375 8 27.382812 8.222656 27.382812 8.5 L 27.382812 16.082031 C 27.382812 17.082031 27.558594 17.824219 27.898438 18.292969 C 28.242188 18.761719 28.769531 19 29.492188 19 C 30.527344 19 31.304688 18.496094 31.824219 17.496094 L 31.878906 17.496094 L 32.019531 18.402344 C 32.058594 18.644531 32.269531 18.824219 32.515625 18.824219 L 33.5 18.824219 C 33.777344 18.824219 34 18.597656 34 18.324219 L 34 8.5 C 34 8.222656 33.777344 8 33.5 8 L 32.058594 8 C 31.785156 8 31.558594 8.222656 31.558594 8.5 L 31.558594 16.597656 C 31.464844 16.796875 31.324219 16.960938 31.125 17.089844 C 30.929688 17.222656 30.730469 17.285156 30.515625 17.285156 C 30.269531 17.285156 30.089844 17.183594 29.984375 16.976562 C 29.878906 16.769531 29.824219 16.425781 29.824219 15.941406 L 29.824219 8.5 C 29.824219 8.222656 29.601562 8 29.324219 8 Z M 22.742188 9.460938 C 23.082031 9.460938 23.324219 9.636719 23.457031 9.996094 C 23.59375 10.355469 23.660156 10.921875 23.660156 11.699219 L 23.660156 15.074219 C 23.660156 15.878906 23.59375 16.457031 23.460938 16.808594 C 23.324219 17.160156 23.085938 17.339844 22.746094 17.339844 C 22.402344 17.339844 22.167969 17.160156 22.039062 16.808594 C 21.90625 16.457031 21.84375 15.875 21.84375 15.074219 L 21.84375 11.699219 C 21.84375 10.925781 21.914062 10.355469 22.046875 9.996094 C 22.179688 9.640625 22.414062 9.460938 22.742188 9.460938 Z M 11.5 21 C 8.480469 21 6 23.480469 6 26.5 L 6 38.5 C 6 41.519531 8.480469 44 11.5 44 L 36.5 44 C 39.519531 44 42 41.519531 42 38.5 L 42 26.5 C 42 23.480469 39.519531 21 36.5 21 Z M 11.5 24 L 36.5 24 C 37.898438 24 39 25.101562 39 26.5 L 39 38.5 C 39 39.898438 37.898438 41 36.5 41 L 11.5 41 C 10.101562 41 9 39.898438 9 38.5 L 9 26.5 C 9 25.101562 10.101562 24 11.5 24 Z M 12.5 26 C 12.222656 26 12 26.222656 12 26.5 L 12 27.5 C 12 27.777344 12.222656 28 12.5 28 L 14 28 L 14 37.984375 C 14 38.257812 14.222656 38.484375 14.5 38.484375 L 15.5 38.484375 C 15.777344 38.484375 16 38.257812 16 37.984375 L 16 28 L 17.5 28 C 17.777344 28 18 27.777344 18 27.5 L 18 26.5 C 18 26.222656 17.777344 26 17.5 26 Z M 24.5 26 C 24.222656 26 24 26.222656 24 26.5 L 24 37.984375 C 24 38.257812 24.222656 38.484375 24.5 38.484375 L 25.332031 38.484375 C 25.5625 38.484375 25.765625 38.324219 25.820312 38.101562 L 25.929688 37.652344 L 25.972656 37.652344 C 26.125 37.949219 26.351562 38.183594 26.660156 38.355469 C 26.96875 38.527344 27.308594 38.613281 27.683594 38.613281 C 28.355469 38.613281 28.847656 38.304688 29.164062 37.6875 C 29.480469 37.066406 29.640625 36.097656 29.640625 34.785156 L 29.640625 33.390625 C 29.640625 32.402344 29.578125 31.632812 29.460938 31.074219 C 29.34375 30.519531 29.144531 30.113281 28.878906 29.867188 C 28.613281 29.617188 28.242188 29.492188 27.773438 29.492188 C 27.410156 29.492188 27.070312 29.59375 26.753906 29.800781 C 26.4375 30.007812 26.191406 30.273438 26.019531 30.613281 L 26 30.613281 L 26 26.5 C 26 26.222656 25.777344 26 25.5 26 Z M 33.21875 29.496094 C 32.234375 29.496094 31.535156 29.800781 31.128906 30.410156 C 30.722656 31.019531 30.515625 31.988281 30.515625 33.3125 L 30.515625 34.851562 C 30.515625 36.136719 30.710938 37.085938 31.105469 37.699219 C 31.5 38.3125 32.1875 38.621094 33.164062 38.621094 C 33.980469 38.621094 34.609375 38.417969 35.054688 38.015625 C 35.46875 37.644531 35.691406 37.097656 35.722656 36.375 C 35.722656 36.097656 35.496094 35.875 35.21875 35.875 L 34.460938 35.875 C 34.183594 35.875 33.953125 36.097656 33.953125 36.375 C 33.953125 36.558594 33.921875 36.792969 33.855469 36.921875 C 33.734375 37.160156 33.503906 37.269531 33.207031 37.269531 C 32.988281 37.269531 32.824219 37.203125 32.71875 37.074219 C 32.613281 36.945312 32.546875 36.738281 32.511719 36.457031 C 32.476562 36.175781 32.460938 35.75 32.460938 35.183594 L 32.460938 34.738281 L 35.28125 34.738281 C 35.558594 34.738281 35.78125 34.511719 35.78125 34.238281 L 35.78125 33.222656 C 35.78125 32.292969 35.707031 31.5625 35.558594 31.035156 C 35.410156 30.507812 35.152344 30.121094 34.789062 29.871094 C 34.425781 29.621094 33.902344 29.496094 33.222656 29.496094 Z M 21.515625 29.660156 C 21.238281 29.660156 21.011719 29.882812 21.011719 30.160156 L 21.011719 36.667969 C 20.933594 36.832031 20.820312 36.964844 20.660156 37.074219 C 20.503906 37.179688 20.335938 37.234375 20.164062 37.234375 C 19.960938 37.234375 19.816406 37.148438 19.730469 36.980469 C 19.644531 36.816406 19.601562 36.53125 19.601562 36.140625 L 19.601562 30.164062 C 19.601562 29.886719 19.378906 29.664062 19.101562 29.664062 L 18.113281 29.664062 C 17.835938 29.664062 17.613281 29.886719 17.613281 30.164062 L 17.613281 36.253906 C 17.613281 37.066406 17.753906 37.667969 18.03125 38.050781 C 18.308594 38.4375 18.738281 38.628906 19.324219 38.628906 C 20.171875 38.628906 20.800781 38.222656 21.222656 37.40625 L 21.269531 37.40625 L 21.371094 38.0625 C 21.410156 38.304688 21.621094 38.484375 21.867188 38.484375 L 22.5 38.484375 C 22.777344 38.484375 23 38.257812 23 37.984375 L 23 30.160156 C 23 29.882812 22.777344 29.660156 22.5 29.660156 Z M 33.175781 30.835938 C 33.390625 30.835938 33.546875 30.898438 33.648438 31.015625 C 33.746094 31.136719 33.816406 31.339844 33.851562 31.632812 C 33.890625 31.925781 33.90625 32.355469 33.90625 32.921875 L 33.90625 33.554688 L 32.457031 33.554688 L 32.457031 32.921875 C 32.457031 32.347656 32.472656 31.917969 32.507812 31.632812 C 32.539062 31.351562 32.605469 31.148438 32.707031 31.023438 C 32.808594 30.898438 32.964844 30.835938 33.179688 30.835938 Z M 26.878906 30.902344 C 27.082031 30.902344 27.238281 30.984375 27.347656 31.140625 C 27.457031 31.296875 27.535156 31.566406 27.578125 31.941406 C 27.621094 32.316406 27.640625 32.847656 27.640625 33.535156 L 27.640625 34.671875 C 27.640625 35.3125 27.613281 35.820312 27.558594 36.179688 C 27.507812 36.546875 27.421875 36.808594 27.296875 36.960938 C 27.171875 37.113281 27.003906 37.1875 26.792969 37.1875 C 26.628906 37.1875 26.480469 37.148438 26.339844 37.070312 C 26.199219 36.996094 26.085938 36.882812 26 36.726562 L 26 31.71875 C 26.066406 31.484375 26.183594 31.285156 26.347656 31.132812 C 26.511719 30.980469 26.6875 30.902344 26.878906 30.902344 Z M 26.878906 30.902344 "/>
</g>
</svg>
